<mxfile host="app.diagrams.net" agent="Mozilla/5.0 (Windows NT 10.0; Win64; x64) AppleWebKit/537.36 (KHTML, like Gecko) Chrome/129.0.0.0 Safari/537.36" version="24.7.17">
  <diagram name="Page-1" id="iaVKFRLQlBkw_Lt0hlkq">
    <mxGraphModel grid="1" page="1" gridSize="10" guides="1" tooltips="1" connect="1" arrows="1" fold="1" pageScale="1" pageWidth="850" pageHeight="1100" math="0" shadow="0">
      <root>
        <mxCell id="0" />
        <mxCell id="1" parent="0" />
        <mxCell id="QCS_nut_5kQLebmsIuxl-1" value="Applicant" style="whiteSpace=wrap;strokeWidth=2;fillColor=#dae8fc;strokeColor=#6c8ebf;" vertex="1" parent="1">
          <mxGeometry x="229" y="20" width="129" height="49" as="geometry" />
        </mxCell>
        <mxCell id="QCS_nut_5kQLebmsIuxl-2" value="Process Applicant Information" style="rounded=1;arcSize=40;strokeWidth=2;fillColor=#f8cecc;strokeColor=#b85450;" vertex="1" parent="1">
          <mxGeometry x="216" y="141" width="155" height="66" as="geometry" />
        </mxCell>
        <mxCell id="QCS_nut_5kQLebmsIuxl-3" value="Application Database" style="whiteSpace=wrap;strokeWidth=2;fillColor=#d5e8d4;strokeColor=#82b366;" vertex="1" parent="1">
          <mxGeometry x="20" y="280" width="212" height="49" as="geometry" />
        </mxCell>
        <mxCell id="QCS_nut_5kQLebmsIuxl-4" value="Hiring Manager" style="whiteSpace=wrap;strokeWidth=2;fillColor=#d5e8d4;strokeColor=#82b366;" vertex="1" parent="1">
          <mxGeometry x="289" y="280" width="168" height="49" as="geometry" />
        </mxCell>
        <mxCell id="QCS_nut_5kQLebmsIuxl-5" value="Billing Department" style="whiteSpace=wrap;strokeWidth=2;fillColor=#d5e8d4;strokeColor=#82b366;" vertex="1" parent="1">
          <mxGeometry x="506" y="280" width="195" height="49" as="geometry" />
        </mxCell>
        <mxCell id="QCS_nut_5kQLebmsIuxl-6" value="Submit Application" style="curved=1;startArrow=none;endArrow=block;exitX=0.5;exitY=0.99;entryX=0.5;entryY=0.01;rounded=0;" edge="1" parent="1" source="QCS_nut_5kQLebmsIuxl-1" target="QCS_nut_5kQLebmsIuxl-2">
          <mxGeometry relative="1" as="geometry">
            <Array as="points" />
          </mxGeometry>
        </mxCell>
        <mxCell id="QCS_nut_5kQLebmsIuxl-7" value="" style="curved=1;startArrow=none;endArrow=block;exitX=0;exitY=0.88;entryX=0.41;entryY=0.01;rounded=0;" edge="1" parent="1" source="QCS_nut_5kQLebmsIuxl-2" target="QCS_nut_5kQLebmsIuxl-3">
          <mxGeometry relative="1" as="geometry">
            <Array as="points">
              <mxPoint x="78" y="244" />
            </Array>
          </mxGeometry>
        </mxCell>
        <mxCell id="QCS_nut_5kQLebmsIuxl-8" value="Store Applicant Data" style="curved=1;startArrow=none;endArrow=block;exitX=0.59;exitY=0.01;entryX=0.13;entryY=1.01;rounded=0;" edge="1" parent="1" source="QCS_nut_5kQLebmsIuxl-3" target="QCS_nut_5kQLebmsIuxl-2">
          <mxGeometry relative="1" as="geometry">
            <Array as="points">
              <mxPoint x="174" y="244" />
            </Array>
          </mxGeometry>
        </mxCell>
        <mxCell id="QCS_nut_5kQLebmsIuxl-9" value="Generate Report" style="curved=1;startArrow=none;endArrow=block;exitX=0.74;exitY=1.01;entryX=0.5;entryY=0.01;rounded=0;" edge="1" parent="1" source="QCS_nut_5kQLebmsIuxl-2" target="QCS_nut_5kQLebmsIuxl-4">
          <mxGeometry relative="1" as="geometry">
            <Array as="points">
              <mxPoint x="372" y="244" />
            </Array>
          </mxGeometry>
        </mxCell>
        <mxCell id="QCS_nut_5kQLebmsIuxl-10" value="Create Invoice" style="curved=1;startArrow=none;endArrow=block;exitX=1;exitY=0.77;entryX=0.5;entryY=0.01;rounded=0;" edge="1" parent="1" source="QCS_nut_5kQLebmsIuxl-2" target="QCS_nut_5kQLebmsIuxl-5">
          <mxGeometry relative="1" as="geometry">
            <Array as="points">
              <mxPoint x="604" y="244" />
            </Array>
          </mxGeometry>
        </mxCell>
      </root>
    </mxGraphModel>
  </diagram>
</mxfile>
